Saira-PARAMETRIC-JUN_ExtraCondensed.ufo
<glyph name="quotesingle" format="2">
  <advance width="140"/>
  <unicode hex="0027"/>
  <anchor x="0" y="0" name="#entry"/>
  <anchor x="136.667" y="0" name="#exit"/>
  <outline>
    <contour>
      <point x="41.5" y="444" type="line"/>
      <point x="97.5" y="444" type="line"/>
      <point x="109.5" y="612" type="line"/>
      <point x="109.5" y="688" type="line"/>
      <point x="30.5" y="688" type="line"/>
      <point x="30.5" y="612" type="line"/>
    </contour>
  </outline>
</glyph>
<glyph name="comma" format="2">
  <advance width="153.33333"/>
  <unicode hex="002C"/>
  <outline>
    <contour>
      <point x="30.5" y="-113.333" type="line"/>
      <point x="99.167" y="-113.333"/>
      <point x="113.333" y="-94.333"/>
      <point x="113.333" y="0" type="curve" smooth="yes"/>
      <point x="113.333" y="95.333" type="line"/>
      <point x="40" y="95.333" type="line"/>
      <point x="40" y="0" type="line"/>
      <point x="69.667" y="0" type="line"/>
      <point x="69.667" y="-25" type="line" smooth="yes"/>
      <point x="69.667" y="-65.667"/>
      <point x="63" y="-73.833"/>
      <point x="30.5" y="-73.833" type="curve"/>
    </contour>
  </outline>
</glyph>
<glyph name="period" format="2">
  <advance width="153.33333"/>
  <unicode hex="002E"/>
  <outline>
    <contour>
      <point x="40" y="0" type="line"/>
      <point x="113.333" y="0" type="line"/>
      <point x="113.333" y="95.333" type="line"/>
      <point x="40" y="95.333" type="line"/>
    </contour>
  </outline>
</glyph>
<glyph name="A" format="2">
  <advance width="313"/>
  <unicode hex="0041"/>
  <anchor x="156" y="0" name="bottom"/>
  <anchor x="283" y="10" name="ogonek"/>
  <anchor x="156" y="688" name="top"/>
  <outline>
    <contour>
      <point x="4" y="0" type="line"/>
      <point x="74" y="0" type="line"/>
      <point x="154" y="628" type="line"/>
      <point x="158" y="628" type="line"/>
      <point x="238" y="0" type="line"/>
      <point x="309" y="0" type="line"/>
      <point x="215" y="688" type="line"/>
      <point x="98" y="688" type="line"/>
    </contour>
    <contour>
      <point x="62" y="195" type="line"/>
      <point x="252" y="195" type="line"/>
      <point x="231" y="258" type="line"/>
      <point x="83" y="258" type="line"/>
    </contour>
  </outline>
</glyph>
<glyph name="B" format="2">
  <advance width="344"/>
  <unicode hex="0042"/>
  <anchor x="259" y="0" name="bottom"/>
  <anchor x="259" y="688" name="top"/>
  <outline>
    <contour>
      <point x="40" y="0" type="line"/>
      <point x="144" y="0" type="line" smooth="yes"/>
      <point x="274" y="0"/>
      <point x="310" y="39"/>
      <point x="310" y="187" type="curve" smooth="yes"/>
      <point x="310" y="194" type="line" smooth="yes"/>
      <point x="310" y="332"/>
      <point x="273" y="371"/>
      <point x="144" y="371" type="curve" smooth="yes"/>
      <point x="96" y="371" type="line"/>
      <point x="96" y="320" type="line"/>
      <point x="144" y="320" type="line" smooth="yes"/>
      <point x="224" y="320"/>
      <point x="240" y="302"/>
      <point x="240" y="208" type="curve" smooth="yes"/>
      <point x="240" y="173" type="line" smooth="yes"/>
      <point x="240" y="80"/>
      <point x="224" y="63"/>
      <point x="144" y="63" type="curve" smooth="yes"/>
      <point x="78" y="63" type="line"/>
      <point x="110" y="37" type="line"/>
      <point x="110" y="651" type="line"/>
      <point x="78" y="625" type="line"/>
      <point x="160" y="625" type="line" smooth="yes"/>
      <point x="216" y="625"/>
      <point x="226" y="610"/>
      <point x="226" y="521" type="curve" smooth="yes"/>
      <point x="226" y="486" type="line" smooth="yes"/>
      <point x="226" y="397"/>
      <point x="210" y="380"/>
      <point x="130" y="380" type="curve" smooth="yes"/>
      <point x="96" y="380" type="line"/>
      <point x="96" y="329" type="line"/>
      <point x="130" y="329" type="line" smooth="yes"/>
      <point x="259" y="329"/>
      <point x="296" y="368"/>
      <point x="296" y="500" type="curve" smooth="yes"/>
      <point x="296" y="507" type="line" smooth="yes"/>
      <point x="296" y="650"/>
      <point x="266" y="688"/>
      <point x="160" y="688" type="curve" smooth="yes"/>
      <point x="40" y="688" type="line"/>
    </contour>
  </outline>
</glyph>
<glyph name="C" format="2">
  <advance width="276"/>
  <unicode hex="0043"/>
  <anchor x="135" y="0" name="bottom"/>
  <anchor x="135" y="688" name="top"/>
  <outline>
    <contour>
      <point x="167" y="-8" type="curve" smooth="yes"/>
      <point x="192" y="-8"/>
      <point x="222" y="-5"/>
      <point x="238" y="0" type="curve"/>
      <point x="238" y="63" type="line"/>
      <point x="220" y="59"/>
      <point x="191" y="55"/>
      <point x="167" y="55" type="curve" smooth="yes"/>
      <point x="105" y="55"/>
      <point x="100" y="74"/>
      <point x="100" y="310" type="curve" smooth="yes"/>
      <point x="100" y="378" type="line" smooth="yes"/>
      <point x="100" y="614"/>
      <point x="105" y="633"/>
      <point x="167" y="633" type="curve" smooth="yes"/>
      <point x="183" y="633"/>
      <point x="208" y="631"/>
      <point x="236" y="625" type="curve"/>
      <point x="236" y="686" type="line"/>
      <point x="219" y="692"/>
      <point x="191" y="696"/>
      <point x="167" y="696" type="curve" smooth="yes"/>
      <point x="46" y="696"/>
      <point x="30" y="642"/>
      <point x="30" y="349" type="curve" smooth="yes"/>
      <point x="30" y="339" type="line" smooth="yes"/>
      <point x="30" y="46"/>
      <point x="46" y="-8"/>
    </contour>
  </outline>
</glyph>
<glyph name="D" format="2">
  <advance width="324"/>
  <unicode hex="0044"/>
  <anchor x="165" y="0" name="bottom"/>
  <anchor x="82" y="344" name="center"/>
  <anchor x="165" y="688" name="top"/>
  <outline>
    <contour>
      <point x="40" y="0" type="line"/>
      <point x="135" y="0" type="line" smooth="yes"/>
      <point x="277" y="0"/>
      <point x="294" y="38"/>
      <point x="294" y="339" type="curve" smooth="yes"/>
      <point x="294" y="349" type="line" smooth="yes"/>
      <point x="294" y="650"/>
      <point x="277" y="688"/>
      <point x="135" y="688" type="curve" smooth="yes"/>
      <point x="40" y="688" type="line"/>
    </contour>
    <contour>
      <point x="110" y="32" type="line"/>
      <point x="110" y="656" type="line"/>
      <point x="79" y="624" type="line"/>
      <point x="136" y="624" type="line" smooth="yes"/>
      <point x="218" y="624"/>
      <point x="224" y="609"/>
      <point x="224" y="377" type="curve" smooth="yes"/>
      <point x="224" y="311" type="line" smooth="yes"/>
      <point x="224" y="79"/>
      <point x="218" y="63"/>
      <point x="136" y="63" type="curve" smooth="yes"/>
      <point x="79" y="63" type="line"/>
    </contour>
  </outline>
</glyph>
<glyph name="E" format="2">
  <advance width="282"/>
  <unicode hex="0045"/>
  <anchor x="143" y="0" name="bottom"/>
  <anchor x="257" y="10" name="ogonek"/>
  <anchor x="143" y="688" name="top"/>
  <anchor x="20" y="688" name="topleft"/>
  <outline>
    <contour>
      <point x="78" y="380" type="line"/>
      <point x="78" y="316" type="line"/>
      <point x="235" y="316" type="line"/>
      <point x="235" y="380" type="line"/>
    </contour>
    <contour>
      <point x="110" y="32" type="line"/>
      <point x="110" y="656" type="line"/>
      <point x="78" y="625" type="line"/>
      <point x="262" y="625" type="line"/>
      <point x="262" y="688" type="line"/>
      <point x="40" y="688" type="line"/>
      <point x="40" y="0" type="line"/>
      <point x="262" y="0" type="line"/>
      <point x="262" y="63" type="line"/>
      <point x="78" y="63" type="line"/>
    </contour>
  </outline>
</glyph>
<glyph name="F" format="2">
  <advance width="272"/>
  <unicode hex="0046"/>
  <anchor x="138" y="0" name="bottom"/>
  <anchor x="138" y="688" name="top"/>
  <outline>
    <contour>
      <point x="78" y="368" type="line"/>
      <point x="78" y="305" type="line"/>
      <point x="229" y="305" type="line"/>
      <point x="229" y="368" type="line"/>
    </contour>
    <contour>
      <point x="110" y="0" type="line"/>
      <point x="110" y="656" type="line"/>
      <point x="78" y="625" type="line"/>
      <point x="256" y="625" type="line"/>
      <point x="256" y="688" type="line"/>
      <point x="40" y="688" type="line"/>
      <point x="40" y="0" type="line"/>
    </contour>
  </outline>
</glyph>
<glyph name="G" format="2">
  <advance width="313"/>
  <unicode hex="0047"/>
  <anchor x="173" y="0" name="bottom"/>
  <anchor x="173" y="688" name="top"/>
  <outline>
    <contour>
      <point x="185" y="-8" type="curve" smooth="yes"/>
      <point x="217" y="-8"/>
      <point x="255" y="-4"/>
      <point x="275" y="3" type="curve"/>
      <point x="275" y="365" type="line"/>
      <point x="159" y="365" type="line"/>
      <point x="159" y="305" type="line"/>
      <point x="207" y="305" type="line"/>
      <point x="207" y="57" type="line"/>
      <point x="198" y="56"/>
      <point x="190" y="55"/>
      <point x="173" y="55" type="curve" smooth="yes"/>
      <point x="106" y="55"/>
      <point x="100" y="72"/>
      <point x="100" y="310" type="curve" smooth="yes"/>
      <point x="100" y="378" type="line" smooth="yes"/>
      <point x="100" y="615"/>
      <point x="107" y="633"/>
      <point x="186" y="633" type="curve" smooth="yes"/>
      <point x="218" y="633"/>
      <point x="249" y="630"/>
      <point x="274" y="625" type="curve"/>
      <point x="274" y="686" type="line"/>
      <point x="252" y="692"/>
      <point x="215" y="696"/>
      <point x="184" y="696" type="curve" smooth="yes"/>
      <point x="51" y="696"/>
      <point x="30" y="648"/>
      <point x="30" y="349" type="curve" smooth="yes"/>
      <point x="30" y="339" type="line" smooth="yes"/>
      <point x="30" y="40"/>
      <point x="51" y="-8"/>
    </contour>
  </outline>
</glyph>
<glyph name="H" format="2">
  <advance width="330"/>
  <unicode hex="0048"/>
  <anchor x="165" y="0" name="bottom"/>
  <anchor x="165" y="550" name="center"/>
  <anchor x="165" y="688" name="top"/>
  <anchor x="20" y="688" name="topleft"/>
  <outline>
    <contour>
      <point x="40" y="0" type="line"/>
      <point x="110" y="0" type="line"/>
      <point x="110" y="347" type="line"/>
      <point x="78" y="315" type="line"/>
      <point x="252" y="315" type="line"/>
      <point x="220" y="347" type="line"/>
      <point x="220" y="0" type="line"/>
      <point x="290" y="0" type="line"/>
      <point x="290" y="688" type="line"/>
      <point x="220" y="688" type="line"/>
      <point x="220" y="347" type="line"/>
      <point x="252" y="379" type="line"/>
      <point x="78" y="379" type="line"/>
      <point x="110" y="347" type="line"/>
      <point x="110" y="688" type="line"/>
      <point x="40" y="688" type="line"/>
    </contour>
  </outline>
</glyph>
<glyph name="I" format="2">
  <advance width="150"/>
  <unicode hex="0049"/>
  <anchor x="75" y="0" name="bottom"/>
  <anchor x="135" y="10" name="ogonek"/>
  <anchor x="75" y="688" name="top"/>
  <anchor x="20" y="688" name="topleft"/>
  <outline>
    <contour>
      <point x="40" y="0" type="line"/>
      <point x="110" y="0" type="line"/>
      <point x="110" y="688" type="line"/>
      <point x="40" y="688" type="line"/>
    </contour>
  </outline>
</glyph>
<glyph name="J" format="2">
  <advance width="198"/>
  <unicode hex="004A"/>
  <anchor x="109" y="0" name="bottom"/>
  <anchor x="109" y="688" name="top"/>
  <outline>
    <contour>
      <point x="158" y="688" type="line"/>
      <point x="88" y="688" type="line"/>
      <point x="88" y="141" type="line" smooth="yes"/>
      <point x="88" y="70"/>
      <point x="75" y="56"/>
      <point x="2" y="56" type="curve"/>
      <point x="2" y="-4" type="line"/>
      <point x="123" y="-4"/>
      <point x="158" y="29"/>
      <point x="158" y="148" type="curve" smooth="yes"/>
    </contour>
  </outline>
</glyph>
<glyph name="K" format="2">
  <advance width="331"/>
  <unicode hex="004B"/>
  <anchor x="217" y="0" name="bottom"/>
  <anchor x="217" y="688" name="top"/>
  <outline>
    <contour>
      <point x="105" y="318" type="line"/>
      <point x="138" y="318" type="line"/>
      <point x="252" y="0" type="line"/>
      <point x="327" y="0" type="line"/>
      <point x="196" y="350" type="line"/>
      <point x="322" y="688" type="line"/>
      <point x="248" y="688" type="line"/>
      <point x="138" y="382" type="line"/>
      <point x="105" y="382" type="line"/>
    </contour>
    <contour>
      <point x="40" y="0" type="line"/>
      <point x="110" y="0" type="line"/>
      <point x="110" y="688" type="line"/>
      <point x="40" y="688" type="line"/>
    </contour>
  </outline>
</glyph>
<glyph name="L" format="2">
  <advance width="258"/>
  <unicode hex="004C"/>
  <anchor x="132" y="0" name="bottom"/>
  <anchor x="132" y="344" name="center"/>
  <anchor x="132" y="688" name="top"/>
  <anchor x="244" y="688" name="topright"/>
  <outline>
    <contour>
      <point x="40" y="0" type="line"/>
      <point x="250" y="0" type="line"/>
      <point x="250" y="63" type="line"/>
      <point x="78" y="63" type="line"/>
      <point x="110" y="32" type="line"/>
      <point x="110" y="688" type="line"/>
      <point x="40" y="688" type="line"/>
    </contour>
  </outline>
</glyph>
<glyph name="M" format="2">
  <advance width="408"/>
  <unicode hex="004D"/>
  <outline>
    <contour>
      <point x="40" y="0" type="line"/>
      <point x="110" y="0" type="line"/>
      <point x="110" y="623" type="line"/>
      <point x="159" y="0" type="line"/>
      <point x="249" y="0" type="line"/>
      <point x="298" y="623" type="line"/>
      <point x="298" y="0" type="line"/>
      <point x="368" y="0" type="line"/>
      <point x="368" y="688" type="line"/>
      <point x="246" y="688" type="line"/>
      <point x="204" y="108" type="line"/>
      <point x="162" y="688" type="line"/>
      <point x="40" y="688" type="line"/>
    </contour>
  </outline>
</glyph>
<glyph name="N" format="2">
  <advance width="345"/>
  <unicode hex="004E"/>
  <anchor x="161" y="0" name="bottom"/>
  <anchor x="161" y="688" name="top"/>
  <outline>
    <contour>
      <point x="40" y="0" type="line"/>
      <point x="110" y="0" type="line"/>
      <point x="110" y="538" type="line"/>
      <point x="199" y="0" type="line"/>
      <point x="305" y="0" type="line"/>
      <point x="305" y="688" type="line"/>
      <point x="235" y="688" type="line"/>
      <point x="235" y="150" type="line"/>
      <point x="146" y="688" type="line"/>
      <point x="40" y="688" type="line"/>
    </contour>
  </outline>
</glyph>
<glyph name="O" format="2">
  <advance width="332"/>
  <unicode hex="004F"/>
  <anchor x="166" y="-2" name="bottom"/>
  <anchor x="166" y="344" name="center"/>
  <anchor x="303" y="10" name="ogonek"/>
  <anchor x="166" y="688" name="top"/>
  <anchor x="15" y="688" name="topleft"/>
  <anchor x="317" y="688" name="topright"/>
  <outline>
    <contour>
      <point x="166" y="-8" type="curve" smooth="yes"/>
      <point x="282" y="-8"/>
      <point x="302" y="44"/>
      <point x="302" y="339" type="curve" smooth="yes"/>
      <point x="302" y="349" type="line" smooth="yes"/>
      <point x="302" y="644"/>
      <point x="282" y="696"/>
      <point x="166" y="696" type="curve" smooth="yes"/>
      <point x="50" y="696"/>
      <point x="30" y="644"/>
      <point x="30" y="349" type="curve" smooth="yes"/>
      <point x="30" y="339" type="line" smooth="yes"/>
      <point x="30" y="44"/>
      <point x="50" y="-8"/>
    </contour>
    <contour>
      <point x="166" y="55" type="curve" smooth="yes"/>
      <point x="108" y="55"/>
      <point x="100" y="79"/>
      <point x="100" y="309" type="curve" smooth="yes"/>
      <point x="100" y="379" type="line" smooth="yes"/>
      <point x="100" y="609"/>
      <point x="108" y="633"/>
      <point x="166" y="633" type="curve" smooth="yes"/>
      <point x="224" y="633"/>
      <point x="232" y="609"/>
      <point x="232" y="379" type="curve" smooth="yes"/>
      <point x="232" y="309" type="line" smooth="yes"/>
      <point x="232" y="79"/>
      <point x="224" y="55"/>
    </contour>
  </outline>
</glyph>
<glyph name="P" format="2">
  <advance width="302"/>
  <unicode hex="0050"/>
  <anchor x="151" y="0" name="bottom"/>
  <anchor x="151" y="688" name="top"/>
  <outline>
    <contour>
      <point x="40" y="0" type="line"/>
      <point x="110" y="0" type="line"/>
      <point x="110" y="651" type="line"/>
      <point x="79" y="625" type="line"/>
      <point x="161" y="625" type="line" smooth="yes"/>
      <point x="213" y="625"/>
      <point x="220" y="614"/>
      <point x="220" y="488" type="curve" smooth="yes"/>
      <point x="220" y="453" type="line" smooth="yes"/>
      <point x="220" y="326"/>
      <point x="213" y="316"/>
      <point x="161" y="316" type="curve" smooth="yes"/>
      <point x="91" y="316" type="line"/>
      <point x="91" y="252" type="line"/>
      <point x="151" y="252" type="line" smooth="yes"/>
      <point x="266" y="252"/>
      <point x="290" y="290"/>
      <point x="290" y="467" type="curve" smooth="yes"/>
      <point x="290" y="474" type="line" smooth="yes"/>
      <point x="290" y="650"/>
      <point x="266" y="688"/>
      <point x="151" y="688" type="curve" smooth="yes"/>
      <point x="40" y="688" type="line"/>
    </contour>
  </outline>
</glyph>
<glyph name="R" format="2">
  <advance width="338"/>
  <unicode hex="0052"/>
  <anchor x="169" y="0" name="bottom"/>
  <anchor x="169" y="688" name="top"/>
  <outline>
    <contour>
      <point x="40" y="0" type="line"/>
      <point x="110" y="0" type="line"/>
      <point x="110" y="651" type="line"/>
      <point x="79" y="625" type="line"/>
      <point x="145" y="625" type="line" smooth="yes"/>
      <point x="224" y="625"/>
      <point x="230" y="618"/>
      <point x="230" y="497" type="curve" smooth="yes"/>
      <point x="230" y="464" type="line" smooth="yes"/>
      <point x="230" y="343"/>
      <point x="224" y="336"/>
      <point x="145" y="336" type="curve" smooth="yes"/>
      <point x="96" y="336" type="line"/>
      <point x="96" y="272" type="line"/>
      <point x="135" y="272" type="line" smooth="yes"/>
      <point x="272" y="272"/>
      <point x="300" y="308"/>
      <point x="300" y="477" type="curve" smooth="yes"/>
      <point x="300" y="484" type="line" smooth="yes"/>
      <point x="300" y="652"/>
      <point x="272" y="688"/>
      <point x="135" y="688" type="curve" smooth="yes"/>
      <point x="40" y="688" type="line"/>
    </contour>
    <contour>
      <point x="238" y="0" type="line"/>
      <point x="312" y="0" type="line"/>
      <point x="219" y="292" type="line"/>
      <point x="148" y="292" type="line"/>
    </contour>
  </outline>
</glyph>
<glyph name="S" format="2">
  <advance width="326"/>
  <unicode hex="0053"/>
  <anchor x="163" y="0" name="bottom"/>
  <anchor x="163" y="688" name="top"/>
  <outline>
    <contour>
      <point x="158" y="-8" type="curve" smooth="yes"/>
      <point x="266" y="-8"/>
      <point x="298" y="39"/>
      <point x="298" y="195" type="curve" smooth="yes"/>
      <point x="298" y="337"/>
      <point x="278" y="375"/>
      <point x="199" y="384" type="curve" smooth="yes"/>
      <point x="142" y="390" type="line" smooth="yes"/>
      <point x="102" y="394"/>
      <point x="98" y="403"/>
      <point x="98" y="498" type="curve" smooth="yes"/>
      <point x="98" y="609"/>
      <point x="112" y="633"/>
      <point x="173" y="633" type="curve" smooth="yes"/>
      <point x="203" y="633"/>
      <point x="242" y="626"/>
      <point x="270" y="616" type="curve"/>
      <point x="270" y="677" type="line"/>
      <point x="240" y="688"/>
      <point x="199" y="696"/>
      <point x="168" y="696" type="curve" smooth="yes"/>
      <point x="71" y="696"/>
      <point x="28" y="636"/>
      <point x="28" y="499" type="curve" smooth="yes"/>
      <point x="28" y="368"/>
      <point x="46" y="334"/>
      <point x="125" y="325" type="curve" smooth="yes"/>
      <point x="182" y="319" type="line" smooth="yes"/>
      <point x="224" y="315"/>
      <point x="228" y="302"/>
      <point x="228" y="194" type="curve" smooth="yes"/>
      <point x="228" y="82"/>
      <point x="212" y="55"/>
      <point x="148" y="55" type="curve" smooth="yes"/>
      <point x="114" y="55"/>
      <point x="69" y="62"/>
      <point x="34" y="72" type="curve"/>
      <point x="34" y="11" type="line"/>
      <point x="76" y="-1"/>
      <point x="125" y="-8"/>
    </contour>
  </outline>
</glyph>
<glyph name="T" format="2">
  <advance width="276"/>
  <unicode hex="0054"/>
  <anchor x="138" y="0" name="bottom"/>
  <anchor x="138" y="344" name="center"/>
  <anchor x="138" y="688" name="top"/>
  <outline>
    <contour>
      <point x="103" y="0" type="line"/>
      <point x="173" y="0" type="line"/>
      <point x="173" y="655" type="line"/>
      <point x="143" y="623" type="line"/>
      <point x="272" y="623" type="line"/>
      <point x="272" y="688" type="line"/>
      <point x="4" y="688" type="line"/>
      <point x="4" y="623" type="line"/>
      <point x="133" y="623" type="line"/>
      <point x="103" y="655" type="line"/>
    </contour>
  </outline>
</glyph>
<glyph name="U" format="2">
  <advance width="336"/>
  <unicode hex="0055"/>
  <anchor x="168" y="0" name="bottom"/>
  <anchor x="302" y="10" name="ogonek"/>
  <anchor x="168" y="688" name="top"/>
  <anchor x="316" y="688" name="topright"/>
  <outline>
    <contour>
      <point x="166" y="-8" type="curve" smooth="yes"/>
      <point x="268" y="-8"/>
      <point x="298" y="41"/>
      <point x="298" y="216" type="curve" smooth="yes"/>
      <point x="298" y="688" type="line"/>
      <point x="228" y="688" type="line"/>
      <point x="228" y="191" type="line" smooth="yes"/>
      <point x="228" y="77"/>
      <point x="217" y="57"/>
      <point x="168" y="57" type="curve" smooth="yes"/>
      <point x="119" y="57"/>
      <point x="108" y="74"/>
      <point x="108" y="187" type="curve" smooth="yes"/>
      <point x="108" y="688" type="line"/>
      <point x="38" y="688" type="line"/>
      <point x="38" y="212" type="line" smooth="yes"/>
      <point x="38" y="40"/>
      <point x="68" y="-8"/>
    </contour>
  </outline>
</glyph>
<glyph name="V" format="2">
  <advance width="269"/>
  <unicode hex="0056"/>
  <outline>
    <contour>
      <point x="82" y="0" type="line"/>
      <point x="189" y="0" type="line"/>
      <point x="265" y="688" type="line"/>
      <point x="194" y="688" type="line"/>
      <point x="135" y="88" type="line"/>
      <point x="75" y="688" type="line"/>
      <point x="4" y="688" type="line"/>
    </contour>
  </outline>
</glyph>
<glyph name="W" format="2">
  <advance width="404"/>
  <unicode hex="0057"/>
  <outline>
    <contour>
      <point x="51" y="0" type="line"/>
      <point x="160" y="0" type="line"/>
      <point x="202" y="569" type="line"/>
      <point x="244" y="0" type="line"/>
      <point x="353" y="0" type="line"/>
      <point x="400" y="688" type="line"/>
      <point x="329" y="688" type="line"/>
      <point x="295" y="118" type="line"/>
      <point x="251" y="688" type="line"/>
      <point x="153" y="688" type="line"/>
      <point x="109" y="118" type="line"/>
      <point x="75" y="688" type="line"/>
      <point x="4" y="688" type="line"/>
    </contour>
  </outline>
</glyph>
<glyph name="X" format="2">
  <advance width="316"/>
  <unicode hex="0058"/>
  <anchor x="174" y="0" name="bottom"/>
  <anchor x="174" y="510" name="top"/>
  <outline>
    <contour>
      <point x="241" y="0" type="line"/>
      <point x="308" y="0" type="line"/>
      <point x="80" y="688" type="line"/>
      <point x="13" y="688" type="line"/>
    </contour>
    <contour>
      <point x="8" y="0" type="line"/>
      <point x="75" y="0" type="line"/>
      <point x="303" y="688" type="line"/>
      <point x="236" y="688" type="line"/>
    </contour>
  </outline>
</glyph>
<glyph name="Y" format="2">
  <advance width="264"/>
  <unicode hex="0059"/>
  <anchor x="135" y="0" name="bottom"/>
  <anchor x="135" y="688" name="top"/>
  <anchor x="85" y="688" name="topleft"/>
  <outline>
    <contour>
      <point x="97" y="0" type="line"/>
      <point x="167" y="0" type="line"/>
      <point x="167" y="298" type="line"/>
      <point x="156" y="211" type="line"/>
      <point x="260" y="688" type="line"/>
      <point x="184" y="688" type="line"/>
      <point x="132" y="328" type="line"/>
      <point x="81" y="688" type="line"/>
      <point x="4" y="688" type="line"/>
      <point x="108" y="211" type="line"/>
      <point x="97" y="298" type="line"/>
    </contour>
  </outline>
</glyph>
<glyph name="Z" format="2">
  <advance width="289"/>
  <unicode hex="005A"/>
  <anchor x="100" y="0" name="bottom"/>
  <anchor x="100" y="344" name="center"/>
  <anchor x="100" y="688" name="top"/>
  <outline>
    <contour>
      <point x="20" y="0" type="line"/>
      <point x="269" y="0" type="line"/>
      <point x="269" y="63" type="line"/>
      <point x="90" y="63" type="line"/>
      <point x="268" y="632" type="line"/>
      <point x="268" y="688" type="line"/>
      <point x="25" y="688" type="line"/>
      <point x="25" y="625" type="line"/>
      <point x="198" y="625" type="line"/>
      <point x="20" y="57" type="line"/>
    </contour>
  </outline>
</glyph>
<glyph name="a" format="2">
  <advance width="286"/>
  <unicode hex="0061"/>
  <anchor x="153" y="0" name="bottom"/>
  <anchor x="387" y="10" name="ogonek"/>
  <anchor x="153" y="510" name="top"/>
  <outline>
    <contour>
      <point x="107" y="-8" type="curve" smooth="yes"/>
      <point x="147" y="-8"/>
      <point x="170" y="10"/>
      <point x="180" y="49" type="curve"/>
      <point x="182" y="49" type="line"/>
      <point x="189" y="0" type="line"/>
      <point x="248" y="0" type="line"/>
      <point x="248" y="325" type="line" smooth="yes"/>
      <point x="248" y="480"/>
      <point x="226" y="518"/>
      <point x="129" y="518" type="curve" smooth="yes"/>
      <point x="94" y="518"/>
      <point x="69" y="515"/>
      <point x="46" y="507" type="curve"/>
      <point x="46" y="449" type="line"/>
      <point x="68" y="455"/>
      <point x="91" y="458"/>
      <point x="128" y="458" type="curve" smooth="yes"/>
      <point x="174" y="458"/>
      <point x="178" y="452"/>
      <point x="178" y="336" type="curve" smooth="yes"/>
      <point x="178" y="241" type="line" smooth="yes"/>
      <point x="178" y="87"/>
      <point x="169" y="52"/>
      <point x="132" y="52" type="curve" smooth="yes"/>
      <point x="102" y="52"/>
      <point x="95" y="68"/>
      <point x="95" y="150" type="curve" smooth="yes"/>
      <point x="95" y="224"/>
      <point x="105" y="240"/>
      <point x="148" y="240" type="curve" smooth="yes"/>
      <point x="191" y="240" type="line"/>
      <point x="191" y="300" type="line"/>
      <point x="138" y="300" type="line" smooth="yes"/>
      <point x="55" y="300"/>
      <point x="25" y="260"/>
      <point x="25" y="145" type="curve" smooth="yes"/>
      <point x="25" y="34"/>
      <point x="48" y="-8"/>
    </contour>
  </outline>
</glyph>
<glyph name="b" format="2">
  <advance width="282"/>
  <unicode hex="0062"/>
  <anchor x="238" y="0" name="bottom"/>
  <anchor x="83" y="594" name="center"/>
  <anchor x="238" y="510" name="top"/>
  <outline>
    <contour>
      <point x="174" y="-8" type="curve" smooth="yes"/>
      <point x="244" y="-8"/>
      <point x="254" y="30"/>
      <point x="254" y="251" type="curve" smooth="yes"/>
      <point x="254" y="259" type="line" smooth="yes"/>
      <point x="254" y="480"/>
      <point x="244" y="518"/>
      <point x="174" y="518" type="curve" smooth="yes"/>
      <point x="141" y="518"/>
      <point x="123" y="504"/>
      <point x="114" y="469" type="curve"/>
      <point x="110" y="469" type="line"/>
      <point x="110" y="743" type="line"/>
      <point x="40" y="743" type="line"/>
      <point x="40" y="0" type="line"/>
      <point x="103" y="0" type="line"/>
      <point x="110" y="41" type="line"/>
      <point x="114" y="41" type="line"/>
      <point x="123" y="7"/>
      <point x="141" y="-8"/>
    </contour>
    <contour>
      <point x="147" y="52" type="curve" smooth="yes"/>
      <point x="118" y="52"/>
      <point x="110" y="91"/>
      <point x="110" y="244" type="curve" smooth="yes"/>
      <point x="110" y="266" type="line" smooth="yes"/>
      <point x="110" y="420"/>
      <point x="118" y="458"/>
      <point x="147" y="458" type="curve" smooth="yes"/>
      <point x="179" y="458"/>
      <point x="184" y="444"/>
      <point x="184" y="281" type="curve" smooth="yes"/>
      <point x="184" y="229" type="line" smooth="yes"/>
      <point x="184" y="66"/>
      <point x="179" y="52"/>
    </contour>
  </outline>
</glyph>
<glyph name="c" format="2">
  <advance width="221"/>
  <unicode hex="0063"/>
  <anchor x="112" y="0" name="bottom"/>
  <anchor x="112" y="510" name="top"/>
  <outline>
    <contour>
      <point x="149" y="-8" type="curve" smooth="yes"/>
      <point x="169" y="-8"/>
      <point x="190" y="-4"/>
      <point x="204" y="2" type="curve"/>
      <point x="204" y="61" type="line"/>
      <point x="190" y="56"/>
      <point x="166" y="52"/>
      <point x="144" y="52" type="curve" smooth="yes"/>
      <point x="103" y="52"/>
      <point x="98" y="67"/>
      <point x="98" y="231" type="curve" smooth="yes"/>
      <point x="98" y="279" type="line" smooth="yes"/>
      <point x="98" y="444"/>
      <point x="103" y="458"/>
      <point x="144" y="458" type="curve" smooth="yes"/>
      <point x="164" y="458"/>
      <point x="186" y="455"/>
      <point x="199" y="449" type="curve"/>
      <point x="199" y="508" type="line"/>
      <point x="186" y="514"/>
      <point x="167" y="518"/>
      <point x="149" y="518" type="curve" smooth="yes"/>
      <point x="46" y="518"/>
      <point x="28" y="479"/>
      <point x="28" y="259" type="curve" smooth="yes"/>
      <point x="28" y="251" type="line" smooth="yes"/>
      <point x="28" y="31"/>
      <point x="46" y="-8"/>
    </contour>
  </outline>
</glyph>
<glyph name="d" format="2">
  <advance width="282"/>
  <unicode hex="0064"/>
  <anchor x="310" y="0" name="bottom"/>
  <anchor x="464" y="594" name="center"/>
  <anchor x="310" y="510" name="top"/>
  <anchor x="519" y="743" name="topright"/>
  <outline>
    <contour>
      <point x="108" y="-8" type="curve" smooth="yes"/>
      <point x="141" y="-8"/>
      <point x="159" y="7"/>
      <point x="168" y="41" type="curve"/>
      <point x="172" y="41" type="line"/>
      <point x="179" y="0" type="line"/>
      <point x="242" y="0" type="line"/>
      <point x="242" y="743" type="line"/>
      <point x="172" y="743" type="line"/>
      <point x="172" y="469" type="line"/>
      <point x="168" y="469" type="line"/>
      <point x="159" y="504"/>
      <point x="141" y="518"/>
      <point x="108" y="518" type="curve" smooth="yes"/>
      <point x="38" y="518"/>
      <point x="28" y="480"/>
      <point x="28" y="259" type="curve" smooth="yes"/>
      <point x="28" y="251" type="line" smooth="yes"/>
      <point x="28" y="30"/>
      <point x="38" y="-8"/>
    </contour>
    <contour>
      <point x="135" y="52" type="curve" smooth="yes"/>
      <point x="103" y="52"/>
      <point x="98" y="66"/>
      <point x="98" y="229" type="curve" smooth="yes"/>
      <point x="98" y="281" type="line" smooth="yes"/>
      <point x="98" y="444"/>
      <point x="103" y="458"/>
      <point x="135" y="458" type="curve" smooth="yes"/>
      <point x="164" y="458"/>
      <point x="172" y="420"/>
      <point x="172" y="266" type="curve" smooth="yes"/>
      <point x="172" y="244" type="line" smooth="yes"/>
      <point x="172" y="91"/>
      <point x="164" y="52"/>
    </contour>
  </outline>
</glyph>
<glyph name="e" format="2">
  <advance width="272"/>
  <unicode hex="0065"/>
  <anchor x="136" y="0" name="bottom"/>
  <anchor x="254" y="10" name="ogonek"/>
  <anchor x="136" y="510" name="top"/>
  <outline>
    <contour>
      <point x="140" y="-8" type="curve" smooth="yes"/>
      <point x="177" y="-8"/>
      <point x="219" y="-2"/>
      <point x="241" y="7" type="curve"/>
      <point x="241" y="65" type="line"/>
      <point x="221" y="58"/>
      <point x="185" y="52"/>
      <point x="159" y="52" type="curve" smooth="yes"/>
      <point x="102" y="52"/>
      <point x="98" y="68"/>
      <point x="98" y="234" type="curve" smooth="yes"/>
      <point x="98" y="275" type="line" smooth="yes"/>
      <point x="98" y="443"/>
      <point x="101" y="458"/>
      <point x="141" y="458" type="curve" smooth="yes"/>
      <point x="178" y="458"/>
      <point x="183" y="442"/>
      <point x="183" y="278" type="curve" smooth="yes"/>
      <point x="183" y="255" type="line"/>
      <point x="214" y="281" type="line"/>
      <point x="64" y="281" type="line"/>
      <point x="64" y="221" type="line"/>
      <point x="247" y="221" type="line"/>
      <point x="247" y="259" type="line" smooth="yes"/>
      <point x="247" y="479"/>
      <point x="231" y="518"/>
      <point x="140" y="518" type="curve" smooth="yes"/>
      <point x="45" y="518"/>
      <point x="28" y="478"/>
      <point x="28" y="259" type="curve" smooth="yes"/>
      <point x="28" y="251" type="line" smooth="yes"/>
      <point x="28" y="32"/>
      <point x="45" y="-8"/>
    </contour>
  </outline>
</glyph>
<glyph name="f" format="2">
  <advance width="223"/>
  <unicode hex="0066"/>
  <anchor x="116" y="0" name="bottom"/>
  <anchor x="116" y="743" name="top"/>
  <outline>
    <contour>
      <point x="65" y="0" type="line"/>
      <point x="135" y="0" type="line"/>
      <point x="135" y="598" type="line" smooth="yes"/>
      <point x="135" y="669"/>
      <point x="148" y="683"/>
      <point x="221" y="683" type="curve"/>
      <point x="221" y="743" type="line"/>
      <point x="100" y="743"/>
      <point x="65" y="710"/>
      <point x="65" y="591" type="curve" smooth="yes"/>
    </contour>
    <contour>
      <point x="8" y="450" type="line"/>
      <point x="80" y="450" type="line"/>
      <point x="80" y="510" type="line"/>
      <point x="8" y="510" type="line"/>
    </contour>
    <contour>
      <point x="121" y="450" type="line"/>
      <point x="221" y="450" type="line"/>
      <point x="221" y="510" type="line"/>
      <point x="121" y="510" type="line"/>
    </contour>
  </outline>
</glyph>
<glyph name="g" format="2">
  <advance width="282"/>
  <unicode hex="0067"/>
  <anchor x="-206" y="-200" name="bottom"/>
  <anchor x="199" y="-84" name="center"/>
  <anchor x="-206" y="510" name="top"/>
  <outline>
    <contour>
      <point x="123" y="-208" type="curve" smooth="yes"/>
      <point x="220" y="-208"/>
      <point x="242" y="-170"/>
      <point x="242" y="-15" type="curve" smooth="yes"/>
      <point x="242" y="510" type="line"/>
      <point x="180" y="510" type="line"/>
      <point x="172" y="469" type="line"/>
      <point x="168" y="469" type="line"/>
      <point x="159" y="504"/>
      <point x="141" y="518"/>
      <point x="108" y="518" type="curve" smooth="yes"/>
      <point x="40" y="518"/>
      <point x="28" y="473"/>
      <point x="28" y="259" type="curve" smooth="yes"/>
      <point x="28" y="251" type="line" smooth="yes"/>
      <point x="28" y="30"/>
      <point x="38" y="-8"/>
      <point x="108" y="-8" type="curve" smooth="yes"/>
      <point x="141" y="-8"/>
      <point x="159" y="7"/>
      <point x="168" y="41" type="curve"/>
      <point x="172" y="41" type="line"/>
      <point x="172" y="-26" type="line" smooth="yes"/>
      <point x="172" y="-142"/>
      <point x="168" y="-148"/>
      <point x="122" y="-148" type="curve" smooth="yes"/>
      <point x="86" y="-148"/>
      <point x="63" y="-145"/>
      <point x="40" y="-139" type="curve"/>
      <point x="40" y="-197" type="line"/>
      <point x="63" y="-205"/>
      <point x="88" y="-208"/>
    </contour>
    <contour>
      <point x="136" y="52" type="curve" smooth="yes"/>
      <point x="103" y="52"/>
      <point x="98" y="66"/>
      <point x="98" y="229" type="curve" smooth="yes"/>
      <point x="98" y="281" type="line" smooth="yes"/>
      <point x="98" y="444"/>
      <point x="103" y="458"/>
      <point x="136" y="458" type="curve" smooth="yes"/>
      <point x="164" y="458"/>
      <point x="172" y="420"/>
      <point x="172" y="266" type="curve" smooth="yes"/>
      <point x="172" y="244" type="line" smooth="yes"/>
      <point x="172" y="90"/>
      <point x="164" y="52"/>
    </contour>
  </outline>
</glyph>
<glyph name="h" format="2">
  <advance width="288"/>
  <unicode hex="0068"/>
  <anchor x="134" y="0" name="bottom"/>
  <anchor x="134" y="510" name="top"/>
  <outline>
    <contour>
      <point x="40" y="0" type="line"/>
      <point x="110" y="0" type="line"/>
      <point x="110" y="383" type="line" smooth="yes"/>
      <point x="110" y="438"/>
      <point x="122" y="458"/>
      <point x="150" y="458" type="curve" smooth="yes"/>
      <point x="174" y="458"/>
      <point x="180" y="448"/>
      <point x="180" y="387" type="curve" smooth="yes"/>
      <point x="180" y="0" type="line"/>
      <point x="250" y="0" type="line"/>
      <point x="250" y="397" type="line" smooth="yes"/>
      <point x="250" y="484"/>
      <point x="231" y="518"/>
      <point x="182" y="518" type="curve" smooth="yes"/>
      <point x="142" y="518"/>
      <point x="119" y="500"/>
      <point x="110" y="462" type="curve"/>
      <point x="110" y="743" type="line"/>
      <point x="40" y="743" type="line"/>
    </contour>
  </outline>
</glyph>
<glyph name="i" format="2">
  <advance width="150"/>
  <unicode hex="0069"/>
  <anchor x="75" y="0" name="bottom"/>
  <anchor x="110" y="0" name="ogonek"/>
  <anchor x="75" y="706" name="top"/>
  <outline>
    <contour>
      <point x="40" y="0" type="line"/>
      <point x="110" y="0" type="line"/>
      <point x="110" y="510" type="line"/>
      <point x="40" y="510" type="line"/>
    </contour>
    <contour>
      <point x="36" y="628" type="line"/>
      <point x="114" y="628" type="line"/>
      <point x="114" y="706" type="line"/>
      <point x="36" y="706" type="line"/>
    </contour>
  </outline>
</glyph>
<glyph name="j" format="2">
  <advance width="150"/>
  <unicode hex="006A"/>
  <anchor x="75" y="-200" name="bottom"/>
  <anchor x="75" y="706" name="top"/>
  <outline>
    <contour>
      <point x="110" y="510" type="line"/>
      <point x="40" y="510" type="line"/>
      <point x="40" y="-55" type="line" smooth="yes"/>
      <point x="40" y="-126"/>
      <point x="27" y="-140"/>
      <point x="-46" y="-140" type="curve"/>
      <point x="-46" y="-200" type="line"/>
      <point x="75" y="-200"/>
      <point x="110" y="-167"/>
      <point x="110" y="-48" type="curve" smooth="yes"/>
    </contour>
    <contour>
      <point x="36" y="628" type="line"/>
      <point x="114" y="628" type="line"/>
      <point x="114" y="706" type="line"/>
      <point x="36" y="706" type="line"/>
    </contour>
  </outline>
</glyph>
<glyph name="k" format="2">
  <advance width="290"/>
  <unicode hex="006B"/>
  <anchor x="238" y="0" name="bottom"/>
  <anchor x="238" y="510" name="top"/>
  <outline>
    <contour>
      <point x="110" y="230" type="line"/>
      <point x="150" y="230" type="line"/>
      <point x="216" y="0" type="line"/>
      <point x="284" y="0" type="line"/>
      <point x="212" y="260" type="line"/>
      <point x="282" y="510" type="line"/>
      <point x="212" y="510" type="line"/>
      <point x="150" y="290" type="line"/>
      <point x="110" y="290" type="line"/>
    </contour>
    <contour>
      <point x="40" y="0" type="line"/>
      <point x="110" y="0" type="line"/>
      <point x="110" y="743" type="line"/>
      <point x="40" y="743" type="line"/>
    </contour>
  </outline>
</glyph>
<glyph name="l" format="2">
  <advance width="150"/>
  <unicode hex="006C"/>
  <anchor x="75" y="0" name="bottom"/>
  <anchor x="75" y="372" name="center"/>
  <anchor x="75" y="743" name="top"/>
  <anchor x="110" y="743" name="topright"/>
  <outline>
    <contour>
      <point x="40" y="0" type="line"/>
      <point x="110" y="0" type="line"/>
      <point x="110" y="743" type="line"/>
      <point x="40" y="743" type="line"/>
    </contour>
  </outline>
</glyph>
<glyph name="m" format="2">
  <advance width="428"/>
  <unicode hex="006D"/>
  <anchor x="134" y="0" name="bottom"/>
  <anchor x="134" y="510" name="top"/>
  <outline>
    <contour>
      <point x="40" y="0" type="line"/>
      <point x="110" y="0" type="line"/>
      <point x="110" y="393" type="line" smooth="yes"/>
      <point x="110" y="442"/>
      <point x="121" y="458"/>
      <point x="150" y="458" type="curve" smooth="yes"/>
      <point x="175" y="458"/>
      <point x="180" y="449"/>
      <point x="180" y="403" type="curve" smooth="yes"/>
      <point x="180" y="0" type="line"/>
      <point x="250" y="0" type="line"/>
      <point x="250" y="393" type="line" smooth="yes"/>
      <point x="250" y="442"/>
      <point x="261" y="458"/>
      <point x="290" y="458" type="curve" smooth="yes"/>
      <point x="315" y="458"/>
      <point x="320" y="449"/>
      <point x="320" y="403" type="curve" smooth="yes"/>
      <point x="320" y="0" type="line"/>
      <point x="390" y="0" type="line"/>
      <point x="390" y="414" type="line" smooth="yes"/>
      <point x="390" y="493"/>
      <point x="374" y="518"/>
      <point x="322" y="518" type="curve" smooth="yes"/>
      <point x="281" y="518"/>
      <point x="259" y="501"/>
      <point x="247" y="467" type="curve"/>
      <point x="243" y="467" type="line"/>
      <point x="236" y="503"/>
      <point x="219" y="518"/>
      <point x="182" y="518" type="curve" smooth="yes"/>
      <point x="144" y="518"/>
      <point x="122" y="503"/>
      <point x="112" y="467" type="curve"/>
      <point x="108" y="467" type="line"/>
      <point x="101" y="510" type="line"/>
      <point x="40" y="510" type="line"/>
    </contour>
  </outline>
</glyph>
<glyph name="o" format="2">
  <advance width="270"/>
  <unicode hex="006F"/>
  <anchor x="135" y="0" name="bottom"/>
  <anchor x="135" y="255" name="center"/>
  <anchor x="270" y="10" name="ogonek"/>
  <anchor x="135" y="510" name="top"/>
  <anchor x="285" y="510" name="topright"/>
  <outline>
    <contour>
      <point x="135" y="-8" type="curve" smooth="yes"/>
      <point x="227" y="-8"/>
      <point x="242" y="31"/>
      <point x="242" y="251" type="curve" smooth="yes"/>
      <point x="242" y="259" type="line" smooth="yes"/>
      <point x="242" y="479"/>
      <point x="227" y="518"/>
      <point x="135" y="518" type="curve" smooth="yes"/>
      <point x="43" y="518"/>
      <point x="28" y="482"/>
      <point x="28" y="259" type="curve" smooth="yes"/>
      <point x="28" y="251" type="line" smooth="yes"/>
      <point x="28" y="31"/>
      <point x="43" y="-8"/>
    </contour>
    <contour>
      <point x="135" y="52" type="curve" smooth="yes"/>
      <point x="101" y="52"/>
      <point x="98" y="64"/>
      <point x="98" y="229" type="curve" smooth="yes"/>
      <point x="98" y="281" type="line" smooth="yes"/>
      <point x="98" y="447"/>
      <point x="102" y="458"/>
      <point x="135" y="458" type="curve" smooth="yes"/>
      <point x="169" y="458"/>
      <point x="172" y="446"/>
      <point x="172" y="281" type="curve" smooth="yes"/>
      <point x="172" y="229" type="line" smooth="yes"/>
      <point x="172" y="64"/>
      <point x="169" y="52"/>
    </contour>
  </outline>
</glyph>
<glyph name="p" format="2">
  <advance width="282"/>
  <unicode hex="0070"/>
  <anchor x="76" y="0" name="bottom"/>
  <anchor x="83" y="-84" name="center"/>
  <anchor x="76" y="510" name="top"/>
  <outline>
    <contour>
      <point x="40" y="-233" type="line"/>
      <point x="110" y="-233" type="line"/>
      <point x="110" y="41" type="line"/>
      <point x="114" y="41" type="line"/>
      <point x="123" y="7"/>
      <point x="141" y="-8"/>
      <point x="174" y="-8" type="curve" smooth="yes"/>
      <point x="243" y="-8"/>
      <point x="254" y="31"/>
      <point x="254" y="251" type="curve" smooth="yes"/>
      <point x="254" y="259" type="line" smooth="yes"/>
      <point x="254" y="479"/>
      <point x="243" y="518"/>
      <point x="174" y="518" type="curve" smooth="yes"/>
      <point x="141" y="518"/>
      <point x="123" y="504"/>
      <point x="114" y="469" type="curve"/>
      <point x="110" y="469" type="line"/>
      <point x="103" y="510" type="line"/>
      <point x="40" y="510" type="line"/>
    </contour>
    <contour>
      <point x="147" y="52" type="curve" smooth="yes"/>
      <point x="118" y="52"/>
      <point x="110" y="91"/>
      <point x="110" y="244" type="curve" smooth="yes"/>
      <point x="110" y="266" type="line" smooth="yes"/>
      <point x="110" y="419"/>
      <point x="118" y="458"/>
      <point x="147" y="458" type="curve" smooth="yes"/>
      <point x="179" y="458"/>
      <point x="184" y="444"/>
      <point x="184" y="281" type="curve" smooth="yes"/>
      <point x="184" y="229" type="line" smooth="yes"/>
      <point x="184" y="66"/>
      <point x="179" y="52"/>
    </contour>
  </outline>
</glyph>
<glyph name="q" format="2">
  <advance width="316.16667"/>
  <unicode hex="0071"/>
  <anchor x="310" y="0" name="bottom"/>
  <anchor x="213.167" y="-84" name="center"/>
  <anchor x="310" y="510" name="top"/>
  <outline>
    <contour>
      <point x="186.167" y="-233" type="line"/>
      <point x="256.167" y="-233" type="line"/>
      <point x="256.167" y="510" type="line"/>
      <point x="193.667" y="510" type="line"/>
      <point x="186.167" y="469" type="line"/>
      <point x="182.167" y="469" type="line"/>
      <point x="173.333" y="503.5"/>
      <point x="155.167" y="518"/>
      <point x="121.833" y="518" type="curve" smooth="yes"/>
      <point x="53" y="518"/>
      <point x="42" y="479"/>
      <point x="42" y="259" type="curve" smooth="yes"/>
      <point x="42" y="251" type="line" smooth="yes"/>
      <point x="42" y="31"/>
      <point x="53" y="-8"/>
      <point x="121.833" y="-8" type="curve" smooth="yes"/>
      <point x="155.167" y="-8"/>
      <point x="173.333" y="6.5"/>
      <point x="182.167" y="41" type="curve"/>
      <point x="186.167" y="41" type="line"/>
    </contour>
    <contour>
      <point x="149.5" y="52" type="curve" smooth="yes"/>
      <point x="117" y="52"/>
      <point x="112" y="66"/>
      <point x="112" y="228.667" type="curve" smooth="yes"/>
      <point x="112" y="281.333" type="line" smooth="yes"/>
      <point x="112" y="444"/>
      <point x="117" y="458"/>
      <point x="149.5" y="458" type="curve" smooth="yes"/>
      <point x="177.833" y="458"/>
      <point x="186.167" y="419.333"/>
      <point x="186.167" y="266" type="curve" smooth="yes"/>
      <point x="186.167" y="244" type="line" smooth="yes"/>
      <point x="186.167" y="90.5"/>
      <point x="178" y="52"/>
    </contour>
  </outline>
</glyph>
<glyph name="r" format="2">
  <advance width="197"/>
  <unicode hex="0072"/>
  <anchor x="99" y="0" name="bottom"/>
  <anchor x="99" y="510" name="top"/>
  <outline>
    <contour>
      <point x="40" y="0" type="line"/>
      <point x="110" y="0" type="line"/>
      <point x="110" y="393" type="line" smooth="yes"/>
      <point x="110" y="441"/>
      <point x="127" y="458"/>
      <point x="172" y="458" type="curve" smooth="yes"/>
      <point x="186" y="458" type="line"/>
      <point x="186" y="518" type="line"/>
      <point x="145" y="518"/>
      <point x="122" y="503"/>
      <point x="112" y="467" type="curve"/>
      <point x="108" y="467" type="line"/>
      <point x="101" y="510" type="line"/>
      <point x="40" y="510" type="line"/>
    </contour>
  </outline>
</glyph>
<glyph name="s" format="2">
  <advance width="269"/>
  <unicode hex="0073"/>
  <anchor x="132" y="0" name="bottom"/>
  <anchor x="132" y="510" name="top"/>
  <outline>
    <contour>
      <point x="95" y="-8" type="curve" smooth="yes"/>
      <point x="206" y="-8"/>
      <point x="243" y="29"/>
      <point x="243" y="144" type="curve" smooth="yes"/>
      <point x="243" y="233"/>
      <point x="228" y="269"/>
      <point x="189" y="278" type="curve" smooth="yes"/>
      <point x="124" y="291" type="line" smooth="yes"/>
      <point x="101" y="296"/>
      <point x="96" y="309"/>
      <point x="96" y="368" type="curve" smooth="yes"/>
      <point x="96" y="441"/>
      <point x="109" y="458"/>
      <point x="157" y="458" type="curve" smooth="yes"/>
      <point x="178" y="458"/>
      <point x="204" y="456"/>
      <point x="223" y="453" type="curve"/>
      <point x="223" y="512" type="line"/>
      <point x="209" y="516"/>
      <point x="189" y="518"/>
      <point x="156" y="518" type="curve" smooth="yes"/>
      <point x="60" y="518"/>
      <point x="26" y="481"/>
      <point x="26" y="369" type="curve" smooth="yes"/>
      <point x="26" y="284"/>
      <point x="41" y="244"/>
      <point x="80" y="236" type="curve" smooth="yes"/>
      <point x="144" y="223" type="line" smooth="yes"/>
      <point x="169" y="218"/>
      <point x="173" y="208"/>
      <point x="173" y="144" type="curve" smooth="yes"/>
      <point x="173" y="68"/>
      <point x="160" y="52"/>
      <point x="95" y="52" type="curve" smooth="yes"/>
      <point x="82" y="52"/>
      <point x="63" y="53"/>
      <point x="31" y="57" type="curve"/>
      <point x="31" y="-1" type="line"/>
      <point x="41" y="-6"/>
      <point x="57" y="-8"/>
    </contour>
  </outline>
</glyph>
<glyph name="t" format="2">
  <advance width="223"/>
  <unicode hex="0074"/>
  <anchor x="116" y="0" name="bottom"/>
  <anchor x="116" y="743" name="top"/>
  <outline>
    <contour>
      <point x="65" y="0" type="line"/>
      <point x="135" y="0" type="line"/>
      <point x="135" y="688" type="line"/>
      <point x="65" y="688" type="line"/>
    </contour>
    <contour>
      <point x="8" y="450" type="line"/>
      <point x="80" y="450" type="line"/>
      <point x="80" y="510" type="line"/>
      <point x="8" y="510" type="line"/>
    </contour>
    <contour>
      <point x="121" y="450" type="line"/>
      <point x="221" y="450" type="line"/>
      <point x="221" y="510" type="line"/>
      <point x="121" y="510" type="line"/>
    </contour>
  </outline>
</glyph>
<glyph name="u" format="2">
  <advance width="288"/>
  <unicode hex="0075"/>
  <anchor x="145" y="0" name="bottom"/>
  <anchor x="275" y="10" name="ogonek"/>
  <anchor x="145" y="510" name="top"/>
  <anchor x="288" y="510" name="topright"/>
  <outline>
    <contour>
      <point x="248" y="510" type="line"/>
      <point x="178" y="510" type="line"/>
      <point x="178" y="127" type="line" smooth="yes"/>
      <point x="178" y="72"/>
      <point x="167" y="52"/>
      <point x="138" y="52" type="curve" smooth="yes"/>
      <point x="114" y="52"/>
      <point x="108" y="62"/>
      <point x="108" y="123" type="curve" smooth="yes"/>
      <point x="108" y="510" type="line"/>
      <point x="38" y="510" type="line"/>
      <point x="38" y="113" type="line" smooth="yes"/>
      <point x="38" y="26"/>
      <point x="57" y="-8"/>
      <point x="106" y="-8" type="curve" smooth="yes"/>
      <point x="147" y="-8"/>
      <point x="171" y="10"/>
      <point x="180" y="49" type="curve"/>
      <point x="182" y="49" type="line"/>
      <point x="189" y="0" type="line"/>
      <point x="248" y="0" type="line"/>
    </contour>
  </outline>
</glyph>
<glyph name="v" format="2">
  <advance width="271"/>
  <unicode hex="0076"/>
  <anchor x="108" y="0" name="bottom"/>
  <anchor x="108" y="510" name="top"/>
  <outline>
    <contour>
      <point x="87" y="0" type="line"/>
      <point x="183" y="0" type="line"/>
      <point x="261" y="510" type="line"/>
      <point x="192" y="510" type="line"/>
      <point x="137" y="77" type="line"/>
      <point x="133" y="77" type="line"/>
      <point x="79" y="510" type="line"/>
      <point x="10" y="510" type="line"/>
    </contour>
  </outline>
</glyph>
<glyph name="w" format="2">
  <advance width="355"/>
  <unicode hex="0077"/>
  <anchor x="202" y="0" name="bottom"/>
  <anchor x="202" y="510" name="top"/>
  <outline>
    <contour>
      <point x="49" y="0" type="line"/>
      <point x="148" y="0" type="line"/>
      <point x="178" y="390" type="line"/>
      <point x="207" y="0" type="line"/>
      <point x="307" y="0" type="line"/>
      <point x="345" y="510" type="line"/>
      <point x="274" y="510" type="line"/>
      <point x="259" y="69" type="line"/>
      <point x="254" y="69" type="line"/>
      <point x="216" y="510" type="line"/>
      <point x="140" y="510" type="line"/>
      <point x="101" y="69" type="line"/>
      <point x="97" y="69" type="line"/>
      <point x="81" y="510" type="line"/>
      <point x="10" y="510" type="line"/>
    </contour>
  </outline>
</glyph>
<glyph name="x" format="2">
  <advance width="261"/>
  <unicode hex="0078"/>
  <anchor x="155" y="0" name="bottom"/>
  <anchor x="155" y="510" name="top"/>
  <outline>
    <contour>
      <point x="183" y="0" type="line"/>
      <point x="253" y="0" type="line"/>
      <point x="78" y="510" type="line"/>
      <point x="8" y="510" type="line"/>
    </contour>
    <contour>
      <point x="8" y="0" type="line"/>
      <point x="78" y="0" type="line"/>
      <point x="253" y="510" type="line"/>
      <point x="183" y="510" type="line"/>
    </contour>
  </outline>
</glyph>
<glyph name="y" format="2">
  <advance width="288"/>
  <unicode hex="0079"/>
  <anchor x="144" y="0" name="bottom"/>
  <anchor x="144" y="510" name="top"/>
  <outline>
    <contour>
      <point x="153" y="-208" type="curve" smooth="yes"/>
      <point x="235" y="-208"/>
      <point x="248" y="-169"/>
      <point x="248" y="30" type="curve" smooth="yes"/>
      <point x="248" y="510" type="line"/>
      <point x="178" y="510" type="line"/>
      <point x="178" y="244" type="line" smooth="yes"/>
      <point x="178" y="90"/>
      <point x="169" y="52"/>
      <point x="139" y="52" type="curve" smooth="yes"/>
      <point x="111" y="52"/>
      <point x="108" y="75"/>
      <point x="108" y="201" type="curve" smooth="yes"/>
      <point x="108" y="510" type="line"/>
      <point x="38" y="510" type="line"/>
      <point x="38" y="251" type="line" smooth="yes"/>
      <point x="38" y="31"/>
      <point x="50" y="-8"/>
      <point x="116" y="-8" type="curve" smooth="yes"/>
      <point x="147" y="-8"/>
      <point x="166" y="7"/>
      <point x="174" y="41" type="curve"/>
      <point x="178" y="41" type="line"/>
      <point x="178" y="13" type="line" smooth="yes"/>
      <point x="178" y="-133"/>
      <point x="175" y="-148"/>
      <point x="125" y="-148" type="curve" smooth="yes"/>
      <point x="102" y="-148"/>
      <point x="82" y="-145"/>
      <point x="67" y="-141" type="curve"/>
      <point x="67" y="-200" type="line"/>
      <point x="87" y="-205"/>
      <point x="120" y="-208"/>
    </contour>
  </outline>
</glyph>
<glyph name="z" format="2">
  <advance width="221"/>
  <unicode hex="007A"/>
  <anchor x="32" y="0" name="bottom"/>
  <anchor x="26" y="255" name="center"/>
  <anchor x="32" y="510" name="top"/>
  <outline>
    <contour>
      <point x="10" y="0" type="line"/>
      <point x="211" y="0" type="line"/>
      <point x="211" y="60" type="line"/>
      <point x="82" y="60" type="line"/>
      <point x="82" y="64" type="line"/>
      <point x="209" y="462" type="line"/>
      <point x="209" y="510" type="line"/>
      <point x="22" y="510" type="line"/>
      <point x="22" y="450" type="line"/>
      <point x="138" y="450" type="line"/>
      <point x="138" y="446" type="line"/>
      <point x="10" y="48" type="line"/>
    </contour>
  </outline>
</glyph>
<glyph name="idotless" format="2">
  <advance width="150"/>
  <unicode hex="0131"/>
  <anchor x="75" y="0" name="bottom"/>
  <anchor x="110" y="0" name="ogonek"/>
  <anchor x="75" y="510" name="top"/>
  <outline>
    <contour>
      <point x="40" y="0" type="line"/>
      <point x="110" y="0" type="line"/>
      <point x="110" y="510" type="line"/>
      <point x="40" y="510" type="line"/>
    </contour>
  </outline>
</glyph>
<glyph name="jdotless" format="2">
  <advance width="150"/>
  <unicode hex="0237"/>
  <anchor x="75" y="-200" name="bottom"/>
  <anchor x="75" y="510" name="top"/>
  <outline>
    <contour>
      <point x="110" y="510" type="line"/>
      <point x="40" y="510" type="line"/>
      <point x="40" y="-55" type="line" smooth="yes"/>
      <point x="40" y="-126"/>
      <point x="27" y="-140"/>
      <point x="-46" y="-140" type="curve"/>
      <point x="-46" y="-200" type="line"/>
      <point x="75" y="-200"/>
      <point x="110" y="-167"/>
      <point x="110" y="-48" type="curve" smooth="yes"/>
    </contour>
  </outline>
</glyph>
<glyph name="dotaccentcomb" format="2">
  <advance width="118"/>
  <unicode hex="0307"/>
  <anchor x="59" y="510" name="_top"/>
  <anchor x="59" y="706" name="top"/>
  <outline>
    <contour>
      <point x="20" y="628" type="line"/>
      <point x="98" y="628" type="line"/>
      <point x="98" y="706" type="line"/>
      <point x="20" y="706" type="line"/>
    </contour>
  </outline>
</glyph>
<glyph name="C.001" format="2">
  <advance width="303"/>
  <anchor x="140" y="0" name="bottom"/>
  <anchor x="140" y="688" name="top"/>
  <outline>
    <contour>
      <point x="178" y="-8" type="curve" smooth="yes"/>
      <point x="205" y="-8"/>
      <point x="237" y="-5"/>
      <point x="255" y="0" type="curve"/>
      <point x="255" y="62.667" type="line"/>
      <point x="236" y="58.5"/>
      <point x="205" y="55.333"/>
      <point x="178" y="55.333" type="curve" smooth="yes"/>
      <point x="110.667" y="55.333"/>
      <point x="105" y="74.167"/>
      <point x="105" y="310" type="curve" smooth="yes"/>
      <point x="105" y="378" type="line" smooth="yes"/>
      <point x="105" y="613.833"/>
      <point x="110.667" y="632.667"/>
      <point x="178" y="632.667" type="curve" smooth="yes"/>
      <point x="197" y="632.667"/>
      <point x="223" y="630.667"/>
      <point x="253" y="625.167" type="curve"/>
      <point x="253" y="686.167" type="line"/>
      <point x="235" y="692"/>
      <point x="204" y="696"/>
      <point x="178" y="696" type="curve" smooth="yes"/>
      <point x="52.167" y="696"/>
      <point x="35" y="642"/>
      <point x="35" y="349" type="curve" smooth="yes"/>
      <point x="35" y="339" type="line" smooth="yes"/>
      <point x="35" y="46"/>
      <point x="52.167" y="-8"/>
    </contour>
  </outline>
</glyph>
<glyph name="M.001" format="2">
  <advance width="428.66667"/>
  <anchor x="209.167" y="0" name="bottom"/>
  <anchor x="209.167" y="688" name="top"/>
  <outline>
    <contour>
      <point x="50" y="0" type="line"/>
      <point x="120" y="0" type="line"/>
      <point x="120" y="579.667" type="line"/>
      <point x="124" y="579.667" type="line"/>
      <point x="186.667" y="0" type="line"/>
      <point x="241" y="0" type="line"/>
      <point x="304.667" y="579.667" type="line"/>
      <point x="308.667" y="579.667" type="line"/>
      <point x="308.667" y="0" type="line"/>
      <point x="378.667" y="0" type="line"/>
      <point x="378.667" y="688" type="line"/>
      <point x="275.833" y="688" type="line"/>
      <point x="216.333" y="155" type="line"/>
      <point x="212.333" y="155" type="line"/>
      <point x="152.833" y="688" type="line"/>
      <point x="50" y="688" type="line"/>
    </contour>
  </outline>
</glyph>
<glyph name="X.001" format="2">
  <advance width="674.54348"/>
  <anchor x="337.543" y="0" name="bottom"/>
  <anchor x="337.543" y="688" name="top"/>
  <outline>
    <contour>
      <point x="29.173" y="0" type="line"/>
      <point x="127.637" y="0" type="line"/>
      <point x="331.884" y="276.057" type="line"/>
      <point x="339.884" y="276.057" type="line"/>
      <point x="543.855" y="0" type="line"/>
      <point x="645.551" y="0" type="line"/>
      <point x="389.971" y="347.391" type="line"/>
      <point x="642.551" y="688" type="line"/>
      <point x="543.363" y="688" type="line"/>
      <point x="342.507" y="417.565" type="line"/>
      <point x="335.116" y="417.565" type="line"/>
      <point x="134.536" y="688" type="line"/>
      <point x="33.173" y="688" type="line"/>
      <point x="285.145" y="345.609" type="line"/>
    </contour>
  </outline>
</glyph>
<glyph name="Y.001" format="2">
  <advance width="290"/>
  <anchor x="141.833" y="0" name="bottom"/>
  <anchor x="141.833" y="688" name="top"/>
  <anchor x="92.5" y="688" name="topleft"/>
  <outline>
    <contour>
      <point x="110.167" y="0" type="line"/>
      <point x="180.167" y="0" type="line"/>
      <point x="180.167" y="316.833" type="line"/>
      <point x="167.667" y="203.5" type="line"/>
      <point x="285" y="688" type="line"/>
      <point x="213.5" y="688" type="line"/>
      <point x="146.333" y="335.333" type="line"/>
      <point x="142.333" y="335.333" type="line"/>
      <point x="76.667" y="688" type="line"/>
      <point x="5" y="688" type="line"/>
      <point x="122.667" y="203.5" type="line"/>
      <point x="110.167" y="316.833" type="line"/>
    </contour>
  </outline>
</glyph>
<glyph name="Z.001" format="2">
  <advance width="279"/>
  <anchor x="121.5" y="0" name="bottom"/>
  <anchor x="121.5" y="344" name="center"/>
  <anchor x="121.5" y="688" name="top"/>
  <outline>
    <contour>
      <point x="30" y="0" type="line"/>
      <point x="249" y="0" type="line"/>
      <point x="249" y="63.333" type="line"/>
      <point x="101" y="63.333" type="line"/>
      <point x="248.333" y="630.333" type="line"/>
      <point x="248.333" y="688" type="line"/>
      <point x="33.5" y="688" type="line"/>
      <point x="33.5" y="624.667" type="line"/>
      <point x="177" y="624.667" type="line"/>
      <point x="30" y="57.667" type="line"/>
    </contour>
  </outline>
</glyph>
<glyph name="_tail.Q" format="2">
  <advance width="124"/>
  <anchor x="55" y="10" name="_bottom"/>
  <outline>
    <contour>
      <point x="20" y="10" type="line"/>
      <point x="34" y="-141" type="line"/>
      <point x="104" y="-141" type="line"/>
      <point x="90" y="10" type="line"/>
    </contour>
  </outline>
</glyph>
<glyph name="a.001" format="2">
  <advance width="301"/>
  <anchor x="158" y="0" name="bottom"/>
  <anchor x="392" y="10" name="ogonek"/>
  <anchor x="158" y="510" name="top"/>
  <outline>
    <contour>
      <point x="117" y="-8" type="curve" smooth="yes"/>
      <point x="154.333" y="-8"/>
      <point x="176.333" y="10"/>
      <point x="184.833" y="48.5" type="curve"/>
      <point x="186.833" y="48.5" type="line"/>
      <point x="193.833" y="0" type="line"/>
      <point x="253" y="0" type="line"/>
      <point x="253" y="259" type="line" smooth="yes"/>
      <point x="253" y="479"/>
      <point x="236.833" y="518"/>
      <point x="141.833" y="518" type="curve" smooth="yes"/>
      <point x="110.667" y="518"/>
      <point x="77.333" y="512.5"/>
      <point x="46" y="502.167" type="curve"/>
      <point x="47" y="444" type="line"/>
      <point x="68.5" y="453.333"/>
      <point x="96.5" y="458"/>
      <point x="125.5" y="458" type="curve" smooth="yes"/>
      <point x="181.167" y="458"/>
      <point x="184" y="447.333"/>
      <point x="184" y="282.333" type="curve" smooth="yes"/>
      <point x="184" y="242.333" type="line" smooth="yes"/>
      <point x="184" y="93"/>
      <point x="174.333" y="52.833"/>
      <point x="135.167" y="52.833" type="curve" smooth="yes"/>
      <point x="105.333" y="52.833"/>
      <point x="100" y="70.667"/>
      <point x="100" y="147.833" type="curve" smooth="yes"/>
      <point x="100" y="223.167"/>
      <point x="107.5" y="240"/>
      <point x="142" y="240" type="curve" smooth="yes"/>
      <point x="214.833" y="240" type="line"/>
      <point x="214.833" y="300" type="line"/>
      <point x="130" y="300" type="line" smooth="yes"/>
      <point x="56.5" y="300"/>
      <point x="32" y="261.5"/>
      <point x="32" y="147.667" type="curve" smooth="yes"/>
      <point x="32" y="31.667"/>
      <point x="53.833" y="-8"/>
    </contour>
  </outline>
</glyph>
<glyph name="c.001" format="2">
  <advance width="244"/>
  <anchor x="122" y="0" name="bottom"/>
  <anchor x="122" y="510" name="top"/>
  <outline>
    <contour>
      <point x="162" y="-8" type="curve" smooth="yes"/>
      <point x="184" y="-8"/>
      <point x="208" y="-4"/>
      <point x="223" y="2" type="curve"/>
      <point x="223" y="60.833" type="line"/>
      <point x="207" y="55.333"/>
      <point x="180" y="52"/>
      <point x="157" y="52" type="curve" smooth="yes"/>
      <point x="110.167" y="52"/>
      <point x="105" y="67"/>
      <point x="105" y="231" type="curve" smooth="yes"/>
      <point x="105" y="279" type="line" smooth="yes"/>
      <point x="105" y="444"/>
      <point x="110.167" y="458"/>
      <point x="157" y="458" type="curve" smooth="yes"/>
      <point x="178" y="458"/>
      <point x="203" y="454.667"/>
      <point x="218" y="449.167" type="curve"/>
      <point x="218" y="508" type="line"/>
      <point x="204" y="514"/>
      <point x="182" y="518"/>
      <point x="162" y="518" type="curve" smooth="yes"/>
      <point x="54.167" y="518"/>
      <point x="35" y="479"/>
      <point x="35" y="259" type="curve" smooth="yes"/>
      <point x="35" y="251" type="line" smooth="yes"/>
      <point x="35" y="31"/>
      <point x="54.167" y="-8"/>
    </contour>
  </outline>
</glyph>
<glyph name="c.004" format="2">
  <advance width="249"/>
  <anchor x="126" y="0" name="bottom"/>
  <anchor x="126" y="510" name="top"/>
  <outline>
    <contour>
      <point x="166" y="-8" type="curve" smooth="yes"/>
      <point x="187.167" y="-8"/>
      <point x="209.667" y="-4"/>
      <point x="224" y="2" type="curve"/>
      <point x="224" y="60.833" type="line"/>
      <point x="209" y="55.333"/>
      <point x="183" y="52"/>
      <point x="161" y="52" type="curve" smooth="yes"/>
      <point x="116.833" y="52"/>
      <point x="112" y="67"/>
      <point x="112" y="231" type="curve" smooth="yes"/>
      <point x="112" y="279" type="line" smooth="yes"/>
      <point x="112" y="444"/>
      <point x="116.833" y="458"/>
      <point x="161" y="458" type="curve" smooth="yes"/>
      <point x="181" y="458"/>
      <point x="205" y="454.667"/>
      <point x="219" y="449.167" type="curve"/>
      <point x="219" y="508" type="line"/>
      <point x="205.667" y="514"/>
      <point x="185" y="518"/>
      <point x="166" y="518" type="curve" smooth="yes"/>
      <point x="60.667" y="518"/>
      <point x="42" y="479"/>
      <point x="42" y="259" type="curve" smooth="yes"/>
      <point x="42" y="251" type="line" smooth="yes"/>
      <point x="42" y="31"/>
      <point x="60.667" y="-8"/>
    </contour>
  </outline>
</glyph>
<glyph name="e.001" format="2">
  <advance width="267"/>
  <anchor x="133" y="0" name="bottom"/>
  <anchor x="251" y="10" name="ogonek"/>
  <anchor x="133" y="510" name="top"/>
  <outline>
    <contour>
      <point x="137" y="-8" type="curve" smooth="yes"/>
      <point x="173.833" y="-8"/>
      <point x="215.667" y="-2"/>
      <point x="238" y="7" type="curve"/>
      <point x="238" y="65.167" type="line"/>
      <point x="218.167" y="57.833"/>
      <point x="182.167" y="52"/>
      <point x="156" y="52" type="curve" smooth="yes"/>
      <point x="99" y="52"/>
      <point x="95" y="67.5"/>
      <point x="95" y="233.833" type="curve" smooth="yes"/>
      <point x="95" y="274.667" type="line" smooth="yes"/>
      <point x="95" y="442.833"/>
      <point x="98" y="458"/>
      <point x="138" y="458" type="curve" smooth="yes"/>
      <point x="177" y="458"/>
      <point x="180" y="443.5"/>
      <point x="180" y="278.333" type="curve" smooth="yes"/>
      <point x="180" y="255.167" type="line"/>
      <point x="211.167" y="281.333" type="line"/>
      <point x="61.167" y="281.333" type="line"/>
      <point x="61.167" y="221.333" type="line"/>
      <point x="244" y="221.333" type="line"/>
      <point x="244" y="259" type="line" smooth="yes"/>
      <point x="244" y="479"/>
      <point x="227.833" y="518"/>
      <point x="137" y="518" type="curve" smooth="yes"/>
      <point x="42.167" y="518"/>
      <point x="25" y="478"/>
      <point x="25" y="259" type="curve" smooth="yes"/>
      <point x="25" y="251" type="line" smooth="yes"/>
      <point x="25" y="32"/>
      <point x="42.167" y="-8"/>
    </contour>
  </outline>
</glyph>
<glyph name="n.001" format="2">
  <advance width="288"/>
  <anchor x="134" y="0" name="bottom"/>
  <anchor x="134" y="510" name="top"/>
  <outline>
    <contour>
      <point x="40" y="0" type="line"/>
      <point x="110" y="0" type="line"/>
      <point x="110" y="334.833" type="line" smooth="yes"/>
      <point x="110" y="437.833"/>
      <point x="116.833" y="458"/>
      <point x="148.167" y="458" type="curve" smooth="yes"/>
      <point x="176.5" y="458"/>
      <point x="180" y="447.167"/>
      <point x="180" y="349.167" type="curve" smooth="yes"/>
      <point x="180" y="0" type="line"/>
      <point x="250" y="0" type="line"/>
      <point x="250" y="362" type="line" smooth="yes"/>
      <point x="250" y="487"/>
      <point x="235.667" y="518"/>
      <point x="175.167" y="518" type="curve" smooth="yes"/>
      <point x="135.333" y="518"/>
      <point x="112.333" y="493"/>
      <point x="102" y="437" type="curve"/>
      <point x="98.333" y="437" type="line"/>
      <point x="92" y="510" type="line"/>
      <point x="40" y="510" type="line"/>
    </contour>
  </outline>
</glyph>
<glyph name="s.001" format="2">
  <advance width="259"/>
  <anchor x="130" y="0" name="bottom"/>
  <anchor x="130" y="510" name="top"/>
  <outline>
    <contour>
      <point x="110" y="-8" type="curve" smooth="yes"/>
      <point x="201.833" y="-8"/>
      <point x="232.5" y="30"/>
      <point x="232.5" y="144.333" type="curve" smooth="yes"/>
      <point x="232.5" y="254.667"/>
      <point x="201.833" y="273.333"/>
      <point x="156.333" y="282.833" type="curve" smooth="yes"/>
      <point x="134.833" y="288" type="line" smooth="yes"/>
      <point x="102.333" y="295.167"/>
      <point x="96.5" y="302.833"/>
      <point x="96.5" y="369.333" type="curve" smooth="yes"/>
      <point x="96.5" y="442.167"/>
      <point x="105" y="458.167"/>
      <point x="142.167" y="458.167" type="curve" smooth="yes"/>
      <point x="166.833" y="458.167"/>
      <point x="198.833" y="455.167"/>
      <point x="221" y="450.333" type="curve"/>
      <point x="221" y="508.667" type="line"/>
      <point x="191.167" y="515.167"/>
      <point x="159.333" y="518.167"/>
      <point x="137.667" y="518.167" type="curve" smooth="yes"/>
      <point x="56.167" y="518.167"/>
      <point x="26.5" y="480"/>
      <point x="26.5" y="369" type="curve" smooth="yes"/>
      <point x="26.5" y="258.667"/>
      <point x="56.833" y="240.333"/>
      <point x="102" y="230.833" type="curve" smooth="yes"/>
      <point x="123.5" y="225.667" type="line" smooth="yes"/>
      <point x="156" y="218.5"/>
      <point x="162.5" y="210.5"/>
      <point x="162.5" y="144.333" type="curve" smooth="yes"/>
      <point x="162.5" y="68.833"/>
      <point x="152.5" y="52"/>
      <point x="106.167" y="52" type="curve" smooth="yes"/>
      <point x="82" y="52"/>
      <point x="50.5" y="55"/>
      <point x="29.167" y="59.833" type="curve"/>
      <point x="29.167" y="1.5" type="line"/>
      <point x="58" y="-5"/>
      <point x="88.833" y="-8"/>
    </contour>
  </outline>
</glyph>
<glyph name="v.001" format="2">
  <advance width="297"/>
  <anchor x="124.717" y="0" name="bottom"/>
  <anchor x="124.717" y="510" name="top"/>
  <outline>
    <contour>
      <point x="95.5" y="0" type="line"/>
      <point x="201.5" y="0" type="line"/>
      <point x="270" y="510" type="line"/>
      <point x="201.333" y="510" type="line"/>
      <point x="150.5" y="65" type="line"/>
      <point x="146.5" y="65" type="line"/>
      <point x="95.667" y="510" type="line"/>
      <point x="27" y="510" type="line"/>
    </contour>
  </outline>
</glyph>
